<svg xmlns="http://www.w3.org/2000/svg" xmlns:xlink="http://www.w3.org/1999/xlink" width="496" height="560" viewBox="0 0 496 560">
  <defs>
    <clipPath id="clip-path">
      <rect id="Rectangle_25" data-name="Rectangle 25" width="24" height="24" transform="translate(176 456)" fill="#fff"/>
    </clipPath>
  </defs>
  <g id="Arrow" transform="translate(-24 -16)">
    <rect id="Rectangle_24" data-name="Rectangle 24" width="496" height="560" rx="8" transform="translate(24 16)" fill="#fff"/>
    <text id="Arrow-2" data-name="Arrow" transform="translate(64 74.82)" fill="#2e3a59" font-size="20" font-family="DMSans-Bold, DM Sans" font-weight="700" letter-spacing="-0.05em"><tspan x="0" y="0">Arrow</tspan></text>
    <path id="Path_62" data-name="Path 62" d="M244,533.9l-4.945-4.956,1.408-1.409L244,531.07l3.535-3.535,1.415,1.414Zm-3.537-13.435-1.413-1.415L244,514.1l4.944,4.955-1.408,1.408L244,516.929l-3.536,3.535Z" fill="#2e3a59"/>
    <path id="Path_63" data-name="Path 63" d="M184.463,531.779l-1.413-1.415,4.95-4.949,4.944,4.955-1.408,1.408L188,528.242l-3.536,3.537ZM188,522.586l-4.945-4.955,1.409-1.409L188,519.757l3.535-3.535,1.415,1.414L188,522.585Z" fill="#2e3a59"/>
    <path id="Path_64" data-name="Path 64" d="M471.5,405.5,468,402l-3.5,3.5.707.707,2.293-2.293V422h1V403.914l2.293,2.293Z" fill="#2e3a59"/>
    <path id="Path_65" data-name="Path 65" d="M474.5,303.5,478,300l-3.5-3.5-.707.707,2.293,2.293H458v1h18.086l-2.293,2.293Z" fill="#2e3a59"/>
    <path id="Path_66" data-name="Path 66" d="M461.5,352.5,458,356l3.5,3.5.707-.707-2.293-2.293H478v-1H459.914l2.293-2.293Z" fill="#2e3a59"/>
    <path id="Path_67" data-name="Path 67" d="M408.5,418.5,412,422l3.5-3.5-.707-.707-2.293,2.293V402h-1v18.086l-2.293-2.293Z" fill="#2e3a59"/>
    <path id="Path_68" data-name="Path 68" d="M471,464l-3-3-3,3,.707.707,1.793-1.793V475h1V462.914l1.793,1.793Z" fill="#2e3a59"/>
    <path id="Path_69" data-name="Path 69" d="M416,471l3-3-3-3-.707.707,1.793,1.793H405v1h12.086l-1.793,1.793Z" fill="#2e3a59"/>
    <path id="Path_70" data-name="Path 70" d="M352,465l-3,3,3,3,.707-.707-1.793-1.793H363v-1H350.914l1.793-1.793Z" fill="#2e3a59"/>
    <path id="Path_71" data-name="Path 71" d="M297,472l3,3,3-3-.707-.707-1.793,1.793V461h-1v12.086l-1.793-1.793Z" fill="#2e3a59"/>
    <g id="Group_5" data-name="Group 5" clip-path="url(#clip-path)">
      <path id="Path_72" data-name="Path 72" d="M195.5,462.5,189,456l-6.5,6.5.707.707,5.293-5.293V480h1V457.914l5.293,5.293Z" fill="#2e3a59"/>
    </g>
    <path id="Path_73" data-name="Path 73" d="M137.5,474.5,144,468l-6.5-6.5-.707.707,5.293,5.293H120v1h22.086l-5.293,5.293Z" fill="#2e3a59"/>
    <path id="Path_74" data-name="Path 74" d="M70.5,461.5,64,468l6.5,6.5.707-.707L65.914,468.5H88v-1H65.914l5.293-5.293Z" fill="#2e3a59"/>
    <path id="Path_75" data-name="Path 75" d="M238.5,473.5,245,480l6.5-6.5-.707-.707-5.293,5.293V456h-1v22.086l-5.293-5.293Z" fill="#2e3a59"/>
    <path id="Path_76" data-name="Path 76" d="M350,405v8h10.17l-2.58-2.59L359,409l5,5-5,5-1.41-1.41,2.58-2.59H348V405Z" fill="#2e3a59"/>
    <path id="Path_77" data-name="Path 77" d="M306,405v8H295.83l2.58-2.59L297,409l-5,5,5,5,1.41-1.41L295.83,415H308V405Z" fill="#2e3a59"/>
    <path id="Path_78" data-name="Path 78" d="M240,406h3v16h2V406h3l-4-4Z" fill="#2e3a59"/>
    <path id="Path_79" data-name="Path 79" d="M194,408v3H178v2h16v3l4-4Z" fill="#2e3a59"/>
    <path id="Path_80" data-name="Path 80" d="M126,416v-3h16v-2H126v-3l-4,4Z" fill="#2e3a59"/>
    <path id="Path_81" data-name="Path 81" d="M80,418H77V402H75v16H72l4,4Z" fill="#2e3a59"/>
    <path id="Path_82" data-name="Path 82" d="M74.992,532H73v-5H68v-2h7ZM84,523H77l.007-7H79v5h5Z" fill="#2e3a59"/>
    <path id="Path_83" data-name="Path 83" d="M413,351.83l3.59,3.58L418,354l-6-6-6,6,1.41,1.41,3.59-3.58V364h2Z" fill="#2e3a59"/>
    <path id="Path_84" data-name="Path 84" d="M360.17,357l-3.58,3.59L358,362l6-6-6-6-1.41,1.41,3.58,3.59H348v2Z" fill="#2e3a59"/>
    <path id="Path_85" data-name="Path 85" d="M295.83,355l3.58-3.59L298,350l-6,6,6,6,1.41-1.41L295.83,357H308v-2Z" fill="#2e3a59"/>
    <path id="Path_86" data-name="Path 86" d="M243,360.17l-3.59-3.58L238,358l6,6,6-6-1.41-1.41L245,360.17V348h-2Z" fill="#2e3a59"/>
    <path id="Path_87" data-name="Path 87" d="M192.979,352.45l.007,3.55H195v-7h-7v2.014l3.55.007L181,361.571,182.429,363Z" fill="#2e3a59"/>
    <path id="Path_88" data-name="Path 88" d="M128.45,351.021l3.55-.007V349h-7v7h2.014l.007-3.55L137.571,363,139,361.571Z" fill="#2e3a59"/>
    <path id="Path_89" data-name="Path 89" d="M77,349.83l2.59,2.58L81,351l-5-5-5,5,1.41,1.41L75,349.83V366h2Z" fill="#2e3a59"/>
    <path id="Path_90" data-name="Path 90" d="M306.17,301l-2.58,2.59L305,305l5-5-5-5-1.41,1.41,2.58,2.59H290v2Z" fill="#2e3a59"/>
    <path id="Path_91" data-name="Path 91" d="M237.83,299l2.58-2.59L239,295l-5,5,5,5,1.41-1.41L237.83,301H254v-2Z" fill="#2e3a59"/>
    <path id="Path_92" data-name="Path 92" d="M187,306.17l-2.59-2.58L183,305l5,5,5-5-1.41-1.41L189,306.17V290h-2Z" fill="#2e3a59"/>
    <path id="Path_93" data-name="Path 93" d="M136.979,296.45l.007,3.55H139v-7h-7v2.014l3.55.007L125,305.571,126.429,307Z" fill="#2e3a59"/>
    <path id="Path_94" data-name="Path 94" d="M71.021,303.55,71.014,300H69v7h7v-2.014l-3.55-.007L83,294.429,81.571,293Z" fill="#2e3a59"/>
    <path id="Path_95" data-name="Path 95" d="M351.558,306.01l-1.414-1.413,4.6-4.6-4.6-4.593,1.414-1.414,6.011,6.01-6.01,6.01Zm10.3-.01h-2V294h2Z" fill="#2e3a59"/>
    <path id="Path_96" data-name="Path 96" d="M416.444,306.01,410.432,300l6.012-6.01,1.415,1.414-4.6,4.6,4.6,4.6Zm-8.3-.01h-2V294h2Z" fill="#2e3a59"/>
    <path id="Path_97" data-name="Path 97" d="M132,531h-7l.007-7H127v5h5Zm6.992-7H137v-5h-5v-2h7Z" fill="#2e3a59"/>
    <path id="Path_98" data-name="Path 98" d="M468,254a10,10,0,1,1,10-10A10,10,0,0,1,468,254Zm-.016-2H468a8,8,0,1,0-.016,0ZM469,249h-2v-6.17l-2.59,2.58L463,244l5-5,5,5-1.41,1.41L469,242.83Z" fill="#2e3a59"/>
    <path id="Path_99" data-name="Path 99" d="M412,254a10.011,10.011,0,0,1-10-10v-.2A10,10,0,1,1,412,254Zm0-18a8,8,0,1,0,8,8A8,8,0,0,0,412,236Zm0,13-1.41-1.41,2.58-2.59H407v-2h6.17l-2.58-2.59L412,239l5,5Z" fill="#2e3a59"/>
    <path id="Path_100" data-name="Path 100" d="M356,254a10,10,0,1,1,10-10A10,10,0,0,1,356,254Zm0-18a8,8,0,1,0,8,8.18V244A8.009,8.009,0,0,0,356,236Zm0,13-5-5,5-5,1.41,1.41L354.83,243H361v2h-6.17l2.58,2.59Z" fill="#2e3a59"/>
    <path id="Path_101" data-name="Path 101" d="M300,254a10,10,0,1,1,10-10A10,10,0,0,1,300,254Zm0-18a8,8,0,1,0,8,8A8,8,0,0,0,300,236Zm0,13-5-5,1.41-1.41,2.59,2.58V239h2v6.17l2.59-2.58L305,244Z" fill="#2e3a59"/>
    <path id="Path_102" data-name="Path 102" d="M244,254a10,10,0,1,1,10-10A10,10,0,0,1,244,254Zm-.016-2H244a8,8,0,1,0-.016,0Zm-3.47-5.136L239.1,245.45l4.95-4.95,4.95,4.95-1.414,1.413-3.536-3.535-3.535,3.536Z" fill="#2e3a59"/>
    <path id="Path_103" data-name="Path 103" d="M76,254a10.011,10.011,0,0,1-10-10v-.2A10,10,0,1,1,76,254Zm0-18a8,8,0,1,0,8,8A8,8,0,0,0,76,236Zm-1.45,13-1.414-1.415,3.535-3.535-3.535-3.535L74.55,239.1l4.95,4.95L74.551,249Z" fill="#2e3a59"/>
    <path id="Path_104" data-name="Path 104" d="M188,254a10,10,0,1,1,10-10A10,10,0,0,1,188,254Zm0-18a8,8,0,1,0,8,8.18V244A8.009,8.009,0,0,0,188,236Zm1.45,12.9-4.95-4.95,4.95-4.95,1.414,1.414-3.536,3.536,3.535,3.536-1.412,1.414Z" fill="#2e3a59"/>
    <path id="Path_105" data-name="Path 105" d="M132,254a10,10,0,1,1,10-10A10,10,0,0,1,132,254Zm0-18a8,8,0,1,0,8,8A8,8,0,0,0,132,236Zm-.05,11.5L127,242.55l1.414-1.414,3.536,3.535,3.536-3.535,1.414,1.414Z" fill="#2e3a59"/>
    <path id="Path_106" data-name="Path 106" d="M468,184.288l-6.01,6.01,1.414,1.415,4.6-4.6,4.6,4.6,1.407-1.415Z" fill="#2e3a59"/>
    <path id="Path_107" data-name="Path 107" d="M415.713,188l-6.011-6.01-1.414,1.414,4.6,4.6-4.6,4.593,1.414,1.414Z" fill="#2e3a59"/>
    <path id="Path_108" data-name="Path 108" d="M352.288,188l6.01,6.01,1.414-1.414-4.6-4.6,4.6-4.6L358.3,181.99Z" fill="#2e3a59"/>
    <path id="Path_109" data-name="Path 109" d="M239.4,194.425l-1.413-1.415L244,187l6.01,6.011-1.413,1.413-4.6-4.6-4.6,4.6Zm0-5.424-1.413-1.416,6.01-6.01,6.01,6.01L248.6,189l-4.6-4.6-4.6,4.6Z" fill="#2e3a59"/>
    <path id="Path_110" data-name="Path 110" d="M188.414,194.01,187,192.6l4.6-4.6-4.6-4.6,1.415-1.407,6.01,6.01-6.009,6.01Zm-5.425,0-1.414-1.413,4.6-4.6-4.6-4.593,1.414-1.414L189,188l-6.01,6.01Z" fill="#2e3a59"/>
    <path id="Path_111" data-name="Path 111" d="M131.585,194.01l-6.01-6.01,6.01-6.01L133,183.4l-4.6,4.6,4.6,4.6-1.414,1.406Zm5.425,0L131,188l6.011-6.01,1.414,1.414-4.6,4.6,4.6,4.6-1.413,1.406Z" fill="#2e3a59"/>
    <path id="Path_112" data-name="Path 112" d="M76,194.424l-6.01-6.01L71.4,187l4.6,4.6,4.6-4.6,1.406,1.415L76,194.424ZM76,189l-6.01-6.011,1.414-1.414,4.6,4.6,4.6-4.6,1.406,1.414L76,189Z" fill="#2e3a59"/>
    <path id="Path_113" data-name="Path 113" d="M300,191.713l6.01-6.01-1.413-1.415-4.6,4.6-4.6-4.6L293.99,185.7Z" fill="#2e3a59"/>
    <path id="Path_114" data-name="Path 114" d="M476.485,135.535,468,127.05l-8.485,8.485,1.414,1.415L468,129.878l7.071,7.072Z" fill="#2e3a59"/>
    <path id="Path_115" data-name="Path 115" d="M408.465,140.485,416.95,132l-8.485-8.485-1.415,1.414L414.122,132l-7.072,7.071Z" fill="#2e3a59"/>
    <path id="Path_116" data-name="Path 116" d="M359.535,123.515,351.05,132l8.485,8.485,1.415-1.414L353.878,132l7.072-7.071Z" fill="#2e3a59"/>
    <path id="Path_117" data-name="Path 117" d="M291.515,128.465,300,136.95l8.485-8.485-1.414-1.415L300,134.122l-7.071-7.072Z" fill="#2e3a59"/>
    <path id="Path_118" data-name="Path 118" d="M244,129.5l-5,5h10Z" fill="#2e3a59"/>
    <path id="Path_119" data-name="Path 119" d="M134.5,132l-5-5v10Z" fill="#2e3a59"/>
    <path id="Path_120" data-name="Path 120" d="M73.5,132l5,5V127Z" fill="#2e3a59"/>
    <path id="Path_121" data-name="Path 121" d="M188,134.5l5-5H183Z" fill="#2e3a59"/>
  </g>
</svg>
