<svg xmlns="http://www.w3.org/2000/svg" width="496" height="336" viewBox="0 0 496 336">
  <g id="Edit" transform="translate(-24 -16)">
    <rect id="Rectangle_36" data-name="Rectangle 36" width="496" height="336" rx="8" transform="translate(24 16)" fill="#fff"/>
    <text id="Edit-2" data-name="Edit" transform="translate(64 74.82)" fill="#2e3a59" font-size="20" font-family="DMSans-Bold, DM Sans" font-weight="700" letter-spacing="-0.05em"><tspan x="0" y="0">Edit</tspan></text>
    <path id="Path_293" data-name="Path 293" d="M365,139H353v-2h12Zm0-4H347v-2h18Zm0-4H353v-2h12Zm0-4H347v-2h18Z" fill="#2e3a59"/>
    <path id="Path_294" data-name="Path 294" d="M303,139H291v-2h12Zm6-4H291v-2h18Zm-6-4H291v-2h12Zm6-4H291v-2h18Z" fill="#2e3a59"/>
    <path id="Path_295" data-name="Path 295" d="M477,139H459v-2h18Zm0-4H459v-2h18Zm0-4H459v-2h18Zm0-4H459v-2h18Z" fill="#2e3a59"/>
    <path id="Path_296" data-name="Path 296" d="M418,139H406v-2h12Zm3-4H403v-2h18Zm-3-4H406v-2h12Zm3-4H403v-2h18Z" fill="#2e3a59"/>
    <path id="Path_297" data-name="Path 297" d="M356,307a10.8,10.8,0,0,1-4.746-1.035,10.083,10.083,0,0,1-3.041-2.282,10.57,10.57,0,0,1-2.113-3.367L346,300l.105-.316a10.652,10.652,0,0,1,2.109-3.367,10.067,10.067,0,0,1,3.04-2.282,11.4,11.4,0,0,1,9.492,0,10.083,10.083,0,0,1,3.041,2.282,10.515,10.515,0,0,1,2.113,3.367l.1.316-.105.316A10.424,10.424,0,0,1,356,307Zm0-12a8.307,8.307,0,0,0-7.883,5,8.714,8.714,0,0,0,15.766,0A8.3,8.3,0,0,0,356,295Zm0,8a3.021,3.021,0,1,1,2.115-.884A2.975,2.975,0,0,1,356,303Z" fill="#2e3a59"/>
    <path id="Path_298" data-name="Path 298" d="M136,142H124a2,2,0,0,1-2-2V128h2v12h12Zm4-4H128a2,2,0,0,1-2-2V124a2,2,0,0,1,2-2h12a2,2,0,0,1,2,2v12A2,2,0,0,1,140,138Zm-12-14v12h12V124Zm5,9.561-3.707-3.708,1.414-1.414L133,130.733l4.293-4.293,1.414,1.414L133,133.56Z" fill="#2e3a59"/>
    <path id="Path_299" data-name="Path 299" d="M248.577,308l-5.767-5.766a5.032,5.032,0,1,1,1.425-1.425L250,306.576Zm-8.543-12.986a3.02,3.02,0,1,0,2.135.886A3.019,3.019,0,0,0,240.034,295.014ZM251,299h-2v-2h-2v-2h2v-2h2v2h2v2h-2Z" fill="#2e3a59"/>
    <path id="Path_300" data-name="Path 300" d="M192.577,308l-5.767-5.766a5.032,5.032,0,1,1,1.425-1.425L194,306.576Zm-8.543-12.986a3.02,3.02,0,1,0,2.135.886A3.019,3.019,0,0,0,184.034,295.014ZM197,297h-6v-2h6Z" fill="#2e3a59"/>
    <path id="Path_301" data-name="Path 301" d="M137.577,307l-4.767-4.766a5.032,5.032,0,1,1,1.425-1.425L139,305.577Zm-7.543-11.986a3.02,3.02,0,1,0,2.135.886A3.019,3.019,0,0,0,130.034,295.014Z" fill="#2e3a59"/>
    <path id="Path_302" data-name="Path 302" d="M82.677,307.607l-5.715-5.716a6,6,0,1,1,1.415-1.415l5.715,5.716-1.414,1.414ZM73.485,293a4,4,0,1,0,2.917,1.264l.605.6-.682-.68-.012-.012A3.971,3.971,0,0,0,73.485,293Z" fill="#2e3a59"/>
    <path id="Path_303" data-name="Path 303" d="M475,253H461a2,2,0,0,1-2-2V237a2,2,0,0,1,2-2h14a2,2,0,0,1,2,2v14A2,2,0,0,1,475,253Zm-14-16v14h14V237Zm8,12h-2v-4h-4v-2h4v-4h2v4h4v2h-4Z" fill="#2e3a59"/>
    <path id="Path_304" data-name="Path 304" d="M412,254a10,10,0,1,1,10-10A10,10,0,0,1,412,254Zm-8-9.828a8,8,0,1,0,0-.172ZM413,249h-2v-4h-4v-2h4v-4h2v4h4v2h-4Z" fill="#2e3a59"/>
    <path id="Path_305" data-name="Path 305" d="M356,254a10.011,10.011,0,0,1-10-10v-.2A10,10,0,1,1,356,254Zm-5-11v2h4v4h2v-4h4v-2h-4v-4h-2v4Z" fill="#2e3a59"/>
    <path id="Path_306" data-name="Path 306" d="M301,245v6h-2v-6h-6v-2h6v-6h2v6h6v2Z" fill="#2e3a59"/>
    <path id="Path_307" data-name="Path 307" d="M244,254l5-5h-4V239h4l-5-5-5,5h4v10h-4Z" fill="#2e3a59"/>
    <path id="Path_308" data-name="Path 308" d="M183,243v-4l-5,5,5,5v-4h10v4l5-5-5-5v4Z" fill="#2e3a59"/>
    <path id="Path_309" data-name="Path 309" d="M133,243v-5h3l-4-4-4,4h3v5h-5v-3l-4,4,4,4v-3h5v5h-3l4,4,4-4h-3v-5h5v3l4-4-4-4v3Z" fill="#2e3a59"/>
    <path id="Path_310" data-name="Path 310" d="M83,253H69a2,2,0,0,1-2-2V237a2,2,0,0,1,2-2H83a2,2,0,0,1,2,2v14A2,2,0,0,1,83,253ZM69,237v14H83V237Zm12,8H71v-2H81Z" fill="#2e3a59"/>
    <path id="Path_311" data-name="Path 311" d="M468,198a10,10,0,1,1,10-10A10,10,0,0,1,468,198Zm-8-9.828a8,8,0,1,0,0-.172ZM473,189H463v-2h10Z" fill="#2e3a59"/>
    <path id="Path_312" data-name="Path 312" d="M412,198a10.011,10.011,0,0,1-10-10v-.2A10,10,0,1,1,412,198Zm-5-11v2h10v-2Z" fill="#2e3a59"/>
    <path id="Path_313" data-name="Path 313" d="M349,189v-2h14v2Z" fill="#2e3a59"/>
    <path id="Path_314" data-name="Path 314" d="M308,194H296v-2h12Zm-14,0h-2v-2h2Zm14-5H296v-2h12Zm-14,0h-2v-2h2Zm14-5H296.023v-2H308Zm-14,0h-2v-2h2Z" fill="#2e3a59"/>
    <path id="Path_315" data-name="Path 315" d="M251,196h-2v-3h-3v-2h3v-3h2v3h3v2h-3Zm-7-3H234v-2h10Zm3-4H234v-2h13Zm0-4H234v-2h13Z" fill="#2e3a59"/>
    <path id="Path_316" data-name="Path 316" d="M182.983,195H180v-1h1.989v-.5h-.994v-1h1V192H180v-1h2.983ZM197,194H185.069v-2H197Zm-14.017-4H180v-.9l1.79-2.1H180v-1h2.983v.9l-1.79,2.1h1.79ZM197,189H185.069v-2H197Zm-14.514-4h-.995v-3H180.5v-1h1.986ZM197,184H185.069v-2H197Z" fill="#2e3a59"/>
    <path id="Path_317" data-name="Path 317" d="M142,193h-9v-2h9Zm-11,0h-9v-2h9Zm4-4H122v-2h13Zm0-4H122v-2h13Z" fill="#2e3a59"/>
    <path id="Path_318" data-name="Path 318" d="M79,195.411l-2.7-2.7,1.414-1.416L79,192.583l5.008-5L85.419,189,79,195.41ZM75,193H66v-2h9Zm4-4H66v-2H79Zm0-4H66v-2H79Z" fill="#2e3a59"/>
    <path id="Path_319" data-name="Path 319" d="M307.97,309.385l-3.356-3.356a11.412,11.412,0,0,1-9.36-.062,10.083,10.083,0,0,1-3.041-2.282,10.488,10.488,0,0,1-2.113-3.369L290,300l.105-.316a10.783,10.783,0,0,1,3.516-4.651L291,292.414,292.413,291l16.969,16.969-1.41,1.414Zm-12.934-12.934A8.579,8.579,0,0,0,292.117,300,8.307,8.307,0,0,0,300,305a9.286,9.286,0,0,0,3.087-.5l-1.8-1.8A2.946,2.946,0,0,1,300,303a3.018,3.018,0,0,1-3-3,2.932,2.932,0,0,1,.3-1.29Zm12.816,7.161-1.392-1.391A8.58,8.58,0,0,0,307.883,300,8.3,8.3,0,0,0,300,295c-.247,0-.495.009-.735.026l-1.765-1.767A11.673,11.673,0,0,1,300,293a10.8,10.8,0,0,1,4.746,1.035,10.083,10.083,0,0,1,3.041,2.282,10.5,10.5,0,0,1,2.113,3.365l.1.318-.105.316a10.433,10.433,0,0,1-2.042,3.3Z" fill="#2e3a59"/>
    <path id="Path_320" data-name="Path 320" d="M180.42,140.579a1,1,0,0,1-.737-.326.987.987,0,0,1-.263-.764l.245-2.694,11.318-11.314,3.537,3.536L183.205,140.33l-2.694.245C180.48,140.578,180.449,140.579,180.42,140.579Zm14.806-12.269-3.536-3.536,2.121-2.121a1,1,0,0,1,1.415,0l2.121,2.121a1,1,0,0,1,0,1.415l-2.12,2.12Z" fill="#2e3a59"/>
    <path id="Path_321" data-name="Path 321" d="M246,142H236a1.933,1.933,0,0,1-2-2V130a1.933,1.933,0,0,1,2-2h4v-4a1.933,1.933,0,0,1,2-2h10a1.933,1.933,0,0,1,2,2v10a1.936,1.936,0,0,1-2,2h-4v4a1.936,1.936,0,0,1-2,2Zm-10-12v10h10v-4h-4a1.936,1.936,0,0,1-2-2v-4Zm6-6v10h10V124Z" fill="#2e3a59"/>
    <path id="Path_322" data-name="Path 322" d="M80,142H68a2,2,0,0,1-2-2V128h2v12H80Zm4-4H72a2,2,0,0,1-2-2V124a2,2,0,0,1,2-2H84a2,2,0,0,1,2,2v12A2,2,0,0,1,84,138ZM72,124v12H84V124Zm7,10H77v-3H74v-2h3v-3h2v3h3v2H79Z" fill="#2e3a59"/>
  </g>
</svg>
