<svg xmlns="http://www.w3.org/2000/svg" width="44" height="44" viewBox="0 0 44 44">
  <path id="icons8_goal" d="M24,2a21.863,21.863,0,0,0-8.66,1.785l1.6,1.6a6.81,6.81,0,0,1,.873,1.081A18.7,18.7,0,1,1,6.465,17.816a6.729,6.729,0,0,1-1.081-.876l-1.6-1.6A21.995,21.995,0,1,0,24,2ZM5.368,3.676a1.692,1.692,0,0,0-1.18,2.905L6.376,8.769H4.9a1.2,1.2,0,0,0-.849,2.053l3.725,3.725a3.386,3.386,0,0,0,2.393.992h2.975L22.8,25.2A1.692,1.692,0,1,0,25.2,22.8l-9.658-9.658V10.171a3.386,3.386,0,0,0-.992-2.393L10.822,4.053A1.2,1.2,0,0,0,8.769,4.9V6.376L6.581,4.188A1.692,1.692,0,0,0,5.368,3.676ZM24,8.769a15.106,15.106,0,0,0-5.127.906c.014.166.05.328.05.5v1.573l1.107,1.107a11.889,11.889,0,1,1-7.179,7.179l-1.107-1.107H10.171c-.168,0-.33-.036-.5-.05A15.221,15.221,0,1,0,24,8.769Zm0,6.769a8.237,8.237,0,0,0-1.163.119L27.59,20.41l0,0a5.072,5.072,0,1,1-7.172,7.172l0,0-4.753-4.753A8.237,8.237,0,0,0,15.538,24,8.462,8.462,0,1,0,24,15.538Z" transform="translate(-2 -2)" fill="#ff9100"/>
</svg>
