<svg xmlns="http://www.w3.org/2000/svg" width="44" height="47.428" viewBox="0 0 44 47.428">
  <path id="icons8_money_bag" d="M21.328.142a3.034,3.034,0,0,0-2.36,2.317c-.55,1.833-2.57,1.648-4.77,1.465-2.383-.55-2.567.918-1.833,2.385.55.733,2.385,6.233,3.119,7.516.55,1.1,4.583,1.651,6.417,1.651s5.866-.917,5.683-2.567c-.183-3.117,1.832-7.7,2.2-8.25.733-1.1.736-3.481-2.381-2.381-.733.183-2.568,2.565-3.3.365C23.458.717,22.359.028,21.328.142Zm7.537,15.7c-.367-.183-1.1,2.019-6.782,2.2-5.133.183-6.6-1.651-6.782-1.651C7.785,18.958,1,26.842,1,34.725,1,44.808,7.05,47.558,23,47.558s22-3.116,22-13.016C45,26.109,36.932,18.04,28.865,15.84ZM20.8,21.709h1.833a.392.392,0,0,1,.365.365v1.833a7.355,7.355,0,0,1,2.933.734c.183,0,.183.182.183.365l-.548,2.02a.178.178,0,0,1-.183.183H25.2a5.177,5.177,0,0,0-2.933-.734c-1.1,0-1.833.549-1.833,1.282s.551,1.1,2.567,1.833c2.567.917,3.667,2.384,3.667,4.4.183,2.017-1.284,3.486-3.484,4.036v2.016a.392.392,0,0,1-.365.365H20.984a.4.4,0,0,1-.369-.365V38.209a9.7,9.7,0,0,1-3.48-.917c-.183,0-.186-.186-.186-.369l.551-2.016a.178.178,0,0,1,.183-.183h.183a6.464,6.464,0,0,0,3.3.917c1.283,0,2.016-.551,2.016-1.468s-.549-1.466-2.2-2.016c-2.017-.733-4.035-1.831-4.035-4.214,0-2.017,1.284-3.486,3.484-4.036V22.074A.4.4,0,0,1,20.8,21.709Z" transform="translate(-1 -0.13)" fill="#04ac69"/>
</svg>
