<svg xmlns="http://www.w3.org/2000/svg" width="44" height="39.288" viewBox="0 0 44 39.288">
  <path id="icons8_payroll" d="M14.574,5c-4.569,0-7.2,3.564-7.2,7.858a7.822,7.822,0,0,0,.691,2.9,1.532,1.532,0,0,0-.62,1.569c.214,1.68.942,2.106,1.406,2.142a6.939,6.939,0,0,0,2.584,3.868v2.618C10.122,29.884,2,27.266,2,36.434H14.574c0-4.972,2.036-7.558,4.23-9.043a2.921,2.921,0,0,1-1.09-1.436V23.337A6.941,6.941,0,0,0,20.3,19.469a.933.933,0,0,0,.175-.031,7.385,7.385,0,0,1-.436-1.713,4.942,4.942,0,0,1,.258-2.391,9.593,9.593,0,0,1-.353-2.477,12.443,12.443,0,0,1,.743-4.313,3.292,3.292,0,0,0-2.839-1.581S17.359,5,14.574,5ZM30.29,5c-4.568,0-7.2,3.564-7.2,7.858a7.823,7.823,0,0,0,.691,2.9,1.532,1.532,0,0,0-.62,1.569c.214,1.68.942,2.106,1.406,2.142a6.939,6.939,0,0,0,2.585,3.868v2.618c-1.309,3.929-9.429,1.311-9.429,10.479h7.9c-.02-.262-.043-.523-.043-.789a11.781,11.781,0,0,1,7.858-11.1V23.337a6.941,6.941,0,0,0,2.584-3.868c.464-.036,1.192-.462,1.406-2.142a1.532,1.532,0,0,0-.62-1.569,6.946,6.946,0,0,0,.691-2.9c0-3.179-1.248-5.893-3.929-5.893C33.562,6.964,33.074,5,30.29,5Zm7.069,22A8.643,8.643,0,1,0,46,35.645,8.643,8.643,0,0,0,37.358,27Zm-2.891,4.165h5.789v1.725H36.174l-.163,2.02h.113a2.041,2.041,0,0,1,1.845-.893A2.775,2.775,0,0,1,40.8,36.937,3.161,3.161,0,0,1,37.316,40.1c-2.019,0-3.371-1.189-3.4-2.769h2.01a1.418,1.418,0,0,0,2.79-.344,1.353,1.353,0,0,0-1.384-1.449A1.481,1.481,0,0,0,36,36.262H34.056Z" transform="translate(-2.002 -5)" fill="#04f"/>
</svg>
