<svg xmlns="http://www.w3.org/2000/svg" width="38.353" height="38.353" viewBox="0 0 38.353 38.353">
  <path id="icons8_linkedin" d="M31.162,0H7.191A7.193,7.193,0,0,0,0,7.191v23.97a7.193,7.193,0,0,0,7.191,7.191h23.97a7.193,7.193,0,0,0,7.191-7.191V7.191A7.193,7.193,0,0,0,31.162,0Zm-19.3,32.556H5.9l-.035-17.84h5.958ZM8.73,12.383H8.7A3.019,3.019,0,1,1,8.77,6.361a3.02,3.02,0,1,1-.04,6.021ZM32.516,32.556h-6.01V22.864c0-2.345-.622-3.941-2.72-3.941a3.042,3.042,0,0,0-2.881,2.12,3.891,3.891,0,0,0-.2,1.412v10.1H14.67l-.035-17.84h6.039l.035,2.518a5.585,5.585,0,0,1,5.134-2.881c3.815,0,6.667,2.489,6.667,7.842v10.36Z" fill="#251f68"/>
</svg>
