<svg xmlns="http://www.w3.org/2000/svg" width="44" height="44" viewBox="0 0 44 44">
  <path id="icons8_bank" d="M25,2a1.833,1.833,0,0,0-1.242.491l-.007,0L4.371,13.061a1.833,1.833,0,0,0-.777.423l-.011.007v0a1.832,1.832,0,0,0,1.25,3.173V42.333A3.666,3.666,0,0,0,8.5,46h33a3.666,3.666,0,0,0,3.667-3.667V16.667a1.832,1.832,0,0,0,1.25-3.173v0l-.007,0a1.833,1.833,0,0,0-.78-.426L26.25,2.494l-.007,0A1.833,1.833,0,0,0,25,2ZM23.167,13.917h3.667v2.918c3.254.574,5.447,2.705,5.55,5.615H28.609c-.187-1.516-1.6-2.524-3.538-2.524-2.007,0-3.334.931-3.334,2.392,0,1.182.914,1.86,3.162,2.338l2.313.494c3.855.81,5.518,2.472,5.518,5.45,0,3.333-2.211,5.539-5.9,6.091v2.893H23.167V36.7c-3.542-.519-5.771-2.606-5.9-5.69h3.882c.187,1.555,1.753,2.553,4.014,2.553,2.086,0,3.563-1.012,3.563-2.46,0-1.223-.958-1.925-3.312-2.431l-2.5-.534c-3.5-.732-5.21-2.551-5.21-5.475,0-3.071,2.115-5.236,5.461-5.822Z" transform="translate(-3 -2)" fill="#00d1c9"/>
</svg>
