<svg xmlns="http://www.w3.org/2000/svg" width="38.354" height="31.167" viewBox="0 0 38.354 31.167">
  <path id="icons8_twitter_3" d="M40.353,8.125a15.707,15.707,0,0,1-4.52,1.239,7.882,7.882,0,0,0,3.459-4.353,15.777,15.777,0,0,1-5,1.91A7.871,7.871,0,0,0,20.684,12.3a7.956,7.956,0,0,0,.2,1.792A22.338,22.338,0,0,1,4.669,5.874,7.883,7.883,0,0,0,7.1,16.38,7.853,7.853,0,0,1,3.54,15.4v.1A7.87,7.87,0,0,0,9.852,23.21a7.872,7.872,0,0,1-2.074.276,8.012,8.012,0,0,1-1.48-.14,7.878,7.878,0,0,0,7.35,5.465A15.877,15.877,0,0,1,2,32.069,22.276,22.276,0,0,0,14.061,35.6c14.474,0,22.386-11.99,22.386-22.388q0-.511-.022-1.018A16.012,16.012,0,0,0,40.353,8.125Z" transform="translate(-1.999 -4.436)" fill="#251f68"/>
</svg>
