<svg xmlns="http://www.w3.org/2000/svg" width="38.353" height="38.353" viewBox="0 0 38.353 38.353">
  <path id="icons8_instagram_3" d="M13.654,3A10.655,10.655,0,0,0,3,13.654V30.7A10.655,10.655,0,0,0,13.654,41.353H30.7A10.655,10.655,0,0,0,41.353,30.7V13.654A10.655,10.655,0,0,0,30.7,3ZM34.961,7.261A2.131,2.131,0,1,1,32.83,9.392,2.131,2.131,0,0,1,34.961,7.261ZM22.176,11.523A10.654,10.654,0,1,1,11.523,22.176,10.655,10.655,0,0,1,22.176,11.523Zm0,4.261a6.392,6.392,0,1,0,6.392,6.392A6.392,6.392,0,0,0,22.176,15.784Z" transform="translate(-3 -3)" fill="#251f68"/>
</svg>
